<?xml version="1.0" encoding="utf-8"?>
<!-- Generator: Adobe Illustrator 25.2.1, SVG Export Plug-In . SVG Version: 6.00 Build 0)  -->
<svg version="1.1" id="Layer_1" xmlns="http://www.w3.org/2000/svg" xmlns:xlink="http://www.w3.org/1999/xlink" x="0px" y="0px"
	 viewBox="0 0 512 512" style="enable-background:new 0 0 512 512;" xml:space="preserve">
<style type="text/css">
	.st0{fill:#FF1700;}
</style>
<g id="C_-_55_x2C__growth_x2C__Chart_x2C__flowchart_x2C__graph_x2C__increase_x2C__progress">
	<g>
		<polygon class="st0" points="161.9,298.3 161.9,380.9 251.3,380.9 251.3,284.8 161.9,284.8 		"/>
		<rect x="72.1" y="303" class="st0" width="80.4" height="78"/>
		<polygon class="st0" points="260.7,280.1 260.7,380.9 350.1,380.9 350.1,257.3 260.7,257.3 		"/>
		<polygon class="st0" points="359.5,252.6 359.5,380.9 439.9,380.9 439.9,211.5 359.5,211.5 		"/>
		<path class="st0" d="M471.5,380.9H40.5c-2.6,0-4.7,2.1-4.7,4.7s2.1,4.7,4.7,4.7h431.1c2.6,0,4.7-2.1,4.7-4.7
			S474.1,380.9,471.5,380.9z"/>
		<path class="st0" d="M58.4,278.6c1,0,2.1-0.3,2.9-1l43.3-34.5l87.8,13.1c1.5,0.2,2.9-0.3,4-1.3l51.7-51.4l51,21.2
			c1.8,0.7,3.8,0.3,5.2-1.1l89.8-93.9c1.8-1.9,1.7-4.8-0.1-6.6c-1.9-1.8-4.8-1.7-6.6,0.1l-87.6,91.5l-50.9-21.1
			c-1.7-0.7-3.8-0.3-5.1,1l-52.2,52L104,233.5c-1.3-0.2-2.6,0.2-3.6,1l-44.9,35.8c-2,1.6-2.4,4.6-0.7,6.6
			C55.7,278,57.1,278.6,58.4,278.6z"/>
	</g>
</g>
<g id="Layer_1_1_">
</g>
</svg>
