<?xml version="1.0" ?><!DOCTYPE svg  PUBLIC '-//W3C//DTD SVG 1.1//EN'  'http://www.w3.org/Graphics/SVG/1.1/DTD/svg11.dtd'><svg height="512px" style="enable-background:new 0 0 512 512;" version="1.1" viewBox="0 0 512 512" width="512px" xml:space="preserve" xmlns="http://www.w3.org/2000/svg" xmlns:xlink="http://www.w3.org/1999/xlink"><g id="luxury_ship_x2C__ship_x2C__watercraft_x2C__military"><g><path d="M179.234,149.91l-0.961,8.701l5.103-4.758L179.234,149.91z M350.814,290.42l0.486,0.688l-6.7,4.694    l-2.543,1.804l-0.071,0.546l-1.799,1.175l-0.143,0.901l0.273,0.415l-5.803,3.936c0.154,0.688,0.206,1.439,0.206,2.146v0.124h7.953    v16.021h7.044h0.479c0.89,0,1.792,0,2.693-0.071l0.071,0.071l0,0c0.07,0,0.07-0.071,0.138-0.071h0.823l0.071-3.999    c0-2.072,1.032-3.936,2.7-4.979v-0.962h2.615c0.202,0,0.404,0,0.625,0l0,0h1.649c0.213-0.071,0.344-0.272,0.415-0.486l1.032-9.808    c0-0.202-0.067-0.345-0.202-0.476c-0.07-0.071-0.209-0.142-0.415-0.213h0.135l0,0c0.28,0,0.564-0.202,0.564-0.476l0.688-6.015    c0-0.139-0.071-0.344-0.142-0.482c-0.131-0.063-0.273-0.135-0.476-0.135h0.131c0.345-0.071,0.558-0.273,0.558-0.554l0.617-5.236    c0-0.221-0.071-0.345-0.202-0.494c-0.071-0.143-0.213-0.213-0.415-0.213h0.131l0,0c0.284,0,0.558-0.202,0.558-0.476l0.202-1.997    h1.59l0.201,1.997c0,0.273,0.285,0.476,0.565,0.476l5.308,0.07l-5.173-0.07c-0.135,0-0.345,0.07-0.415,0.213    c-0.135,0.149-0.214,0.273-0.214,0.494l0.558,5.236c0,0.28,0.28,0.554,0.554,0.554h7.179h-7.044l0,0    c-0.202,0-0.345,0.071-0.479,0.135c-0.07,0.139-0.138,0.344-0.138,0.482l0.617,6.015c0,0.273,0.28,0.547,0.554,0.547h8.697h-8.563    l0,0c-0.202,0-0.345,0.07-0.479,0.213c-0.067,0.06-0.138,0.273-0.138,0.404l0.89,9.677c0.071,0.345,0.284,0.546,0.629,0.546    h12.568c0.135,0,0.345,0,0.408-0.142c0.142-0.131,0.213-0.273,0.213-0.404v-3.389c0-0.345-0.276-0.55-0.558-0.55h-1.519    l0.06-10.152h6.153v10.152h-2.356c-0.202,0-0.333,0.07-0.403,0.142c-0.143,0.131-0.214,0.273-0.214,0.408v3.389    c0,0.345,0.284,0.617,0.565,0.617h6.411l0,0c0.139,0,0.28-0.071,0.411-0.213c0,0,0,0,0.071,0c0.071,0.142,0.206,0.213,0.427,0.213    h1.306l0,0c0.202,0,0.344-0.071,0.486-0.213c0.06,0.142,0.272,0.213,0.403,0.213h2.978v0.767h-0.688    c1.578,0.76,2.689,2.14,3.104,3.868c10.567-1.941,19.953-4.159,26.301-5.81c12.217-3.239,41.985-8.847,50.754-10.496    c-13.475,17.338-59.582,68.5-55.991,88.449l-236.208-0.819H66.763l-0.06-0.768L37.63,341.305h0.06    c-1.033-5.667-2.065-16.085-2.338-19.396l0.063-25.406l20.305,0.07l14.495,25.407H56.682l0,0h0.961l0,0l0,0h13.949l8.009-7.53    h13.672c0.142,0,0.486-0.063,0.692-0.272c0.202-0.206,0.273-0.427,0.273-0.7l0.071-12.49h-0.965v-6.49l0,0l0,0v-4.766l0,0    L93.416,288l3.928,0.071v-1.994c0-0.636-0.475-1.104-1.092-1.104h-5.394v-4.706l10.496,0.071v7.732h4.22v12.916h-0.767    l-0.071,12.218c0,0.272,0.142,0.479,0.273,0.688c0.213,0.202,0.423,0.285,0.688,0.285h3.875l0,0c0.486,0,0.902-0.355,0.973-0.771    c1.934-10.002,4.758-19.811,4.829-29.82l0,0l0,0v-5.465l0,0v-1.923h1.863c0.071-1.115,0.415-2.147,0.897-3.108l-8.764-5.94    l0.273-0.415l-0.131-0.895l-1.803-1.167l-0.071-0.558l-2.559-1.795l-6.632-4.7l0.498-0.688l6.83,4.49l2.551,1.657l0.479-0.067    l3.591,2.484l1.53-0.202l0.415-0.562l0.273,0.214l0.416-0.486l2.966,2.068l0.273-0.344l0.415,0.276c0,0,0.546-0.894,0.961-1.443    c0.423-0.625,0.767-0.21,0.767-0.21s0,0,0.557,0.344c0.475,0.345,0.06,0.617,0.06,0.617l-0.748,1.107l0.748,0.554l0.071,0.558    l-0.344,0.546l1.246,0.831c1.025-0.558,2.278-0.831,3.512-0.831l0,0c4.425,0,8.009,3.39,8.372,7.665h1.508v13.055h3.18l0,0l0,0    h0.961l0.071-17.267h15.741l9.872,17.338h4.702c0.55,0.063,0.965-0.423,0.965-0.98l0.071-12.561h-0.071v-50.96h0.071l0.827-7.176    l9.943,3.658l-10.287,3.518h7.38l6.43-2.207l5.446,1.934v0.273h2.357v-5.729l0,0l0.06-7.938v-4.489l18.161,0.067h13.807v46.538    h1.59l-0.213,27.204h1.597l0.277-36.25h5.861l-0.273,36.25h1.597l0.202-27.135h5.862l-0.202,27.207h4.971v8.432    c0,0.479,0.412,0.961,0.969,0.961l25.401,0.071l0.688,8.068c0.071,0.558,0.494,0.901,0.98,0.901l10.204,0.063l3.674,8.499v4.758    l-137.342-0.403l0,0c-0.277,0-0.55,0.131-0.752,0.344l-7.938,9.939l2.473,0.071l6.699-8.432l155.566,0.493l0,0    c0.558,0,0.961-0.423,0.961-0.979v-6.61l5.667,0.053v-0.131c0-5.865,4.763-10.691,10.567-10.691c3.251,0,6.067,1.437,8.009,3.715    l2.544-1.721l0.363,0.475l0.272-0.201l0.416,0.546l1.507,0.213l3.666-2.479l0.404,0.07l2.563-1.668L350.814,290.42z     M177.787,163.171l-0.89,7.8l6.063-4.145L177.787,163.171z M174.749,190.787l-0.819,7.524l8.342-3.937L174.749,190.787z     M173.437,202.179l-1.246,11.463l10.021-6.563L173.437,202.179z M176.403,175.738l-1.377,12.148l7.934-6.763L176.403,175.738z     M216.798,193.686h-4.291l-0.06,10.629l4.351,0.075V193.686z M193.801,186.99l-0.819-11.252l-6.355,5.385L193.801,186.99z     M194.56,197.623l-0.482-6.219l-6.27,2.97L194.56,197.623z M184.49,205.636l8.966-5.942l-8.413-4.002l-9.95,4.696L184.49,205.636z     M192.637,170.899l-0.557-7.455l-5.039,3.453L192.637,170.899z M191.736,158.338l-0.625-8.428l-4.212,3.943L191.736,158.338z     M189.042,148.667l-4.829-0.062h-1.657l0,0h-1.253l3.875,3.589L189.042,148.667z M183.031,135.412    c0.415,0.146,0.759,0.621,0.759,1.036l-0.071,9.804h0.636h1.238l0.067-9.733c0-0.344,0.134-0.617,0.348-0.899    c0.067-0.062,0.202-0.139,0.344-0.208c-0.416-0.204-0.692-0.623-0.692-1.1v-8.153c0-0.344,0.134-0.623,0.348-0.899    c0.131-0.063,0.273-0.139,0.404-0.204c-0.131-0.071-0.273-0.142-0.404-0.278c-0.213-0.202-0.348-0.481-0.348-0.825v-1.589h-1.871    v1.589c0,0.344-0.142,0.623-0.344,0.825c-0.071,0.136-0.202,0.208-0.344,0.278c0.142,0.065,0.273,0.141,0.344,0.204    c0.202,0.277,0.344,0.556,0.344,0.834v8.218C183.791,134.789,183.446,135.208,183.031,135.412L183.031,135.412z M185.178,155.434    l-6.146,5.667l6.011,4.349l6.217-4.287L185.178,155.434z M190.696,220.753l-1.855,0.626l1.855,0.688V220.753z M190.767,209.154    v-3.655c0-0.354,0.067-0.626,0.344-0.901c0.202-0.208,0.494-0.283,0.838-0.344l3.097,0.062l-0.209-2.688l-8.073,5.313    L190.767,209.154z M185.043,193.069l7.938-3.735l-8.147-6.621l-7.724,6.556L185.043,193.069z M184.763,179.6l7.317-6.215    l-7.107-5.041l-7.608,5.177L184.763,179.6z M190.696,214.538v-2.693l-6.138-3.451l-11.192,7.319l11.952,4.347l5.379-1.867V214.538    z" style="fill:#262626;"/></g></g><g id="Layer_1"/></svg>