<?xml version="1.0" encoding="utf-8"?>
<!-- Generator: Adobe Illustrator 25.2.1, SVG Export Plug-In . SVG Version: 6.00 Build 0)  -->
<svg version="1.1" id="Layer_1" xmlns="http://www.w3.org/2000/svg" xmlns:xlink="http://www.w3.org/1999/xlink" x="0px" y="0px"
	 viewBox="0 0 512 512" style="enable-background:new 0 0 512 512;" xml:space="preserve">
<style type="text/css">
	.st0{fill:#FF1700;}
</style>
<g id="luxury_ship_x2C__ship_x2C__watercraft_x2C__military">
	<g>
		<path class="st0" d="M179.2,149.9l-1,8.7l5.1-4.8L179.2,149.9z M350.8,290.4l0.5,0.7l-6.7,4.7l-2.5,1.8l-0.1,0.5l-1.8,1.2
			l-0.1,0.9l0.3,0.4l-5.8,3.9c0.2,0.7,0.2,1.4,0.2,2.1v0.1h8v16h7h0.5c0.9,0,1.8,0,2.7-0.1l0.1,0.1l0,0c0.1,0,0.1-0.1,0.1-0.1h0.8
			l0.1-4c0-2.1,1-3.9,2.7-5v-1h2.6c0.2,0,0.4,0,0.6,0l0,0h1.6c0.2-0.1,0.3-0.3,0.4-0.5l1-9.8c0-0.2-0.1-0.3-0.2-0.5
			c-0.1-0.1-0.2-0.1-0.4-0.2h0.1l0,0c0.3,0,0.6-0.2,0.6-0.5l0.7-6c0-0.1-0.1-0.3-0.1-0.5c-0.1-0.1-0.3-0.1-0.5-0.1h0.1
			c0.3-0.1,0.6-0.3,0.6-0.6l0.6-5.2c0-0.2-0.1-0.3-0.2-0.5c-0.1-0.1-0.2-0.2-0.4-0.2h0.1l0,0c0.3,0,0.6-0.2,0.6-0.5l0.2-2h1.6l0.2,2
			c0,0.3,0.3,0.5,0.6,0.5l5.3,0.1l-5.2-0.1c-0.1,0-0.3,0.1-0.4,0.2c-0.1,0.1-0.2,0.3-0.2,0.5l0.6,5.2c0,0.3,0.3,0.6,0.6,0.6h7.2h-7
			l0,0c-0.2,0-0.3,0.1-0.5,0.1c-0.1,0.1-0.1,0.3-0.1,0.5l0.6,6c0,0.3,0.3,0.5,0.6,0.5h8.7h-8.6l0,0c-0.2,0-0.3,0.1-0.5,0.2
			c-0.1,0.1-0.1,0.3-0.1,0.4l0.9,9.7c0.1,0.3,0.3,0.5,0.6,0.5H382c0.1,0,0.3,0,0.4-0.1c0.1-0.1,0.2-0.3,0.2-0.4v-3.4
			c0-0.3-0.3-0.5-0.6-0.5h-1.5l0.1-10.2h6.2v10.2h-2.4c-0.2,0-0.3,0.1-0.4,0.1c-0.1,0.1-0.2,0.3-0.2,0.4v3.4c0,0.3,0.3,0.6,0.6,0.6
			h6.4l0,0c0.1,0,0.3-0.1,0.4-0.2c0,0,0,0,0.1,0c0.1,0.1,0.2,0.2,0.4,0.2h1.3l0,0c0.2,0,0.3-0.1,0.5-0.2c0.1,0.1,0.3,0.2,0.4,0.2h3
			v0.8h-0.7c1.6,0.8,2.7,2.1,3.1,3.9c10.6-1.9,20-4.2,26.3-5.8c12.2-3.2,42-8.8,50.8-10.5c-13.5,17.3-59.6,68.5-56,88.4l-236.2-0.8
			H66.8l-0.1-0.8l-29.1-46.7h0.1c-1-5.7-2.1-16.1-2.3-19.4l0.1-25.4l20.3,0.1L70.2,322H56.7l0,0h1l0,0l0,0h13.9l8-7.5h13.7
			c0.1,0,0.5-0.1,0.7-0.3c0.2-0.2,0.3-0.4,0.3-0.7l0.1-12.5h-1v-6.5l0,0l0,0v-4.8l0,0l0.1-1.7l3.9,0.1v-2c0-0.6-0.5-1.1-1.1-1.1
			h-5.4v-4.7l10.5,0.1v7.7h4.2V301h-0.8l-0.1,12.2c0,0.3,0.1,0.5,0.3,0.7c0.2,0.2,0.4,0.3,0.7,0.3h3.9l0,0c0.5,0,0.9-0.4,1-0.8
			c1.9-10,4.8-19.8,4.8-29.8l0,0l0,0v-5.5l0,0v-1.9h1.9c0.1-1.1,0.4-2.1,0.9-3.1l-8.8-5.9l0.3-0.4l-0.1-0.9l-1.8-1.2l-0.1-0.6
			l-2.6-1.8l-6.6-4.7l0.5-0.7l6.8,4.5l2.6,1.7l0.5-0.1l3.6,2.5l1.5-0.2l0.4-0.6l0.3,0.2l0.4-0.5l3,2.1l0.3-0.3l0.4,0.3
			c0,0,0.5-0.9,1-1.4c0.4-0.6,0.8-0.2,0.8-0.2s0,0,0.6,0.3c0.5,0.3,0.1,0.6,0.1,0.6l-0.7,1.1l0.7,0.6l0.1,0.6l-0.3,0.5l1.2,0.8
			c1-0.6,2.3-0.8,3.5-0.8l0,0c4.4,0,8,3.4,8.4,7.7h1.5v13.1h3.2l0,0l0,0h1l0.1-17.3h15.7l9.9,17.3h4.7c0.6,0.1,1-0.4,1-1l0.1-12.6
			h-0.1v-51h0.1l0.8-7.2l9.9,3.7l-10.3,3.5h7.4l6.4-2.2l5.4,1.9v0.3h2.4v-5.7l0,0l0.1-7.9v-4.5l18.2,0.1h13.8v46.5h1.6l-0.2,27.2
			h1.6l0.3-36.2h5.9l-0.3,36.2h1.6l0.2-27.1h5.9l-0.2,27.2h5v8.4c0,0.5,0.4,1,1,1l25.4,0.1l0.7,8.1c0.1,0.6,0.5,0.9,1,0.9l10.2,0.1
			l3.7,8.5v4.8l-137.3-0.4l0,0c-0.3,0-0.6,0.1-0.8,0.3l-7.9,9.9l2.5,0.1l6.7-8.4l155.6,0.5l0,0c0.6,0,1-0.4,1-1v-6.6l5.7,0.1v-0.1
			c0-5.9,4.8-10.7,10.6-10.7c3.3,0,6.1,1.4,8,3.7l2.5-1.7l0.4,0.5l0.3-0.2l0.4,0.5l1.5,0.2l3.7-2.5l0.4,0.1l2.6-1.7L350.8,290.4z
			 M177.8,163.2l-0.9,7.8l6.1-4.1L177.8,163.2z M174.7,190.8l-0.8,7.5l8.3-3.9L174.7,190.8z M173.4,202.2l-1.2,11.5l10-6.6
			L173.4,202.2z M176.4,175.7l-1.4,12.1l7.9-6.8L176.4,175.7z M216.8,193.7h-4.3l-0.1,10.6l4.4,0.1V193.7z M193.8,187l-0.8-11.3
			l-6.4,5.4L193.8,187z M194.6,197.6l-0.5-6.2l-6.3,3L194.6,197.6z M184.5,205.6l9-5.9l-8.4-4l-9.9,4.7L184.5,205.6z M192.6,170.9
			l-0.6-7.5l-5,3.5L192.6,170.9z M191.7,158.3l-0.6-8.4l-4.2,3.9L191.7,158.3z M189,148.7l-4.8-0.1h-1.7l0,0h-1.3l3.9,3.6L189,148.7
			z M183,135.4c0.4,0.1,0.8,0.6,0.8,1l-0.1,9.8h0.6h1.2l0.1-9.7c0-0.3,0.1-0.6,0.3-0.9c0.1-0.1,0.2-0.1,0.3-0.2
			c-0.4-0.2-0.7-0.6-0.7-1.1v-8.2c0-0.3,0.1-0.6,0.3-0.9c0.1-0.1,0.3-0.1,0.4-0.2c-0.1-0.1-0.3-0.1-0.4-0.3
			c-0.2-0.2-0.3-0.5-0.3-0.8v-1.6h-1.9v1.6c0,0.3-0.1,0.6-0.3,0.8c-0.1,0.1-0.2,0.2-0.3,0.3c0.1,0.1,0.3,0.1,0.3,0.2
			c0.2,0.3,0.3,0.6,0.3,0.8v8.2C183.8,134.8,183.4,135.2,183,135.4L183,135.4z M185.2,155.4l-6.1,5.7l6,4.3l6.2-4.3L185.2,155.4z
			 M190.7,220.8l-1.9,0.6l1.9,0.7V220.8z M190.8,209.2v-3.7c0-0.4,0.1-0.6,0.3-0.9c0.2-0.2,0.5-0.3,0.8-0.3l3.1,0.1l-0.2-2.7
			l-8.1,5.3L190.8,209.2z M185,193.1l7.9-3.7l-8.1-6.6l-7.7,6.6L185,193.1z M184.8,179.6l7.3-6.2l-7.1-5l-7.6,5.2L184.8,179.6z
			 M190.7,214.5v-2.7l-6.1-3.5l-11.2,7.3l12,4.3l5.4-1.9L190.7,214.5L190.7,214.5z"/>
	</g>
</g>
<g id="Layer_1_1_">
</g>
</svg>
